<?xml version="1.0" standalone="no"?>
<!DOCTYPE svg PUBLIC "-//W3C//DTD SVG 20010904//EN"
 "http://www.w3.org/TR/2001/REC-SVG-20010904/DTD/svg10.dtd">
<svg version="1.0" xmlns="http://www.w3.org/2000/svg"
 width="574.000000pt" height="660.000000pt" viewBox="0 0 574.000000 660.000000"
 preserveAspectRatio="xMidYMid meet">
<metadata>
Created by potrace 1.16, written by Peter Selinger 2001-2019
</metadata>
<g transform="translate(0.000000,660.000000) scale(0.100000,-0.100000)"
fill="#000000" stroke="none">
<path d="M2174 6305 c-149 -32 -268 -99 -384 -215 -88 -88 -135 -157 -177
-260 -42 -106 -53 -181 -53 -382 l0 -187 -572 -3 c-557 -3 -574 -4 -618 -24
-55 -25 -113 -88 -131 -140 -17 -50 -17 -158 0 -208 18 -53 76 -115 131 -140
39 -18 70 -21 217 -24 l173 -4 0 -1786 c0 -1932 -2 -1845 53 -1982 42 -103 89
-172 177 -260 118 -118 235 -183 388 -215 100 -22 2924 -22 3024 0 153 32 270
97 388 215 88 88 135 157 177 260 55 137 53 50 53 1982 l0 1786 173 4 c197 4
235 15 298 85 46 51 63 101 63 183 0 36 -6 82 -13 104 -18 52 -76 115 -131
140 -44 20 -61 21 -617 24 l-573 3 0 187 c0 201 -11 276 -53 382 -42 103 -89
172 -177 260 -118 118 -235 183 -388 215 -95 21 -1336 20 -1428 0z m1309 -521
c65 -11 136 -63 171 -124 31 -55 31 -56 34 -227 l4 -173 -802 0 -802 0 4 173
c3 171 3 172 34 227 32 58 108 114 163 123 43 7 1153 7 1194 1z m1007 -2812
c0 -1893 3 -1797 -53 -1881 -14 -20 -48 -49 -78 -66 l-54 -30 -1415 0 -1415 0
-55 31 c-61 35 -113 106 -124 171 -3 21 -6 822 -6 1781 l0 1742 1600 0 1600 0
0 -1748z"/>
</g>
</svg>
