<?xml version="1.0" standalone="no"?>
<!DOCTYPE svg PUBLIC "-//W3C//DTD SVG 20010904//EN"
 "http://www.w3.org/TR/2001/REC-SVG-20010904/DTD/svg10.dtd">
<svg version="1.0" xmlns="http://www.w3.org/2000/svg"
 width="132.000000pt" height="149.000000pt" viewBox="0 0 132.000000 149.000000"
 preserveAspectRatio="xMidYMid meet">

<g transform="translate(0.000000,149.000000) scale(0.100000,-0.100000)"
fill="#000000" stroke="none">
<path d="M192 1328 c-37 -98 -54 -207 -55 -333 0 -157 20 -213 99 -283 l55
-48 -24 -44 c-54 -99 -58 -210 -17 -450 11 -63 20 -116 20 -117 0 -2 29 -3 65
-3 63 0 65 1 65 25 0 14 -9 57 -19 97 -27 104 -34 148 -21 148 5 0 10 -7 10
-15 0 -9 16 -48 36 -88 21 -39 40 -83 43 -96 6 -20 15 -8 61 83 30 59 58 110
62 112 16 10 7 -53 -17 -129 -14 -43 -25 -91 -25 -107 0 -30 0 -30 59 -30 l58
0 32 81 c18 44 35 106 40 137 l7 57 13 -45 c13 -44 6 -101 -25 -209 l-7 -24
149 5 c120 4 160 9 205 27 97 37 154 117 153 216 -1 71 -18 108 -73 158 -47
42 -98 60 -161 55 -44 -3 -45 -4 -45 -38 0 -35 1 -35 50 -40 94 -10 145 -61
145 -144 0 -39 -5 -51 -37 -85 -39 -40 -75 -54 -169 -67 l-51 -6 5 80 c6 99
-14 165 -64 214 -24 25 -40 55 -53 101 l-19 65 36 7 c96 18 162 82 227 220 48
102 75 200 75 275 l0 50 -97 -1 c-65 0 -117 -6 -153 -18 -55 -18 -55 -18 -102
6 -140 69 -324 68 -445 -3 -23 -13 -45 -24 -49 -24 -10 0 2 118 16 158 7 17
16 32 21 32 5 0 27 -16 49 -36 38 -35 43 -36 82 -28 l41 9 -39 38 c-51 49
-122 95 -161 103 -30 6 -32 4 -51 -48z m229 -258 c38 -21 23 -38 -28 -32 -57
6 -59 7 -43 27 14 17 43 19 71 5z m575 -42 c-8 -49 -50 -148 -63 -148 -5 0
-15 15 -21 34 -7 19 -24 51 -38 71 -19 29 -22 40 -13 51 14 17 62 32 108 33
l34 1 -7 -42z m-425 -8 c26 -14 24 -24 -6 -38 -21 -10 -26 -9 -35 8 -21 39 -2
53 41 30z m215 -75 c9 -14 15 -28 12 -30 -2 -2 -25 6 -51 19 -50 24 -52 36 -6
36 19 0 34 -8 45 -25z m-232 -50 c9 -14 25 -25 36 -25 26 0 25 -13 -2 -53 -41
-59 -72 -87 -94 -87 -33 0 -41 18 -47 103 l-6 78 27 -5 c15 -3 34 -2 42 4 22
14 26 13 44 -15z"/>
</g>
</svg>
